<svg xmlns="http://www.w3.org/2000/svg" viewBox="0 0 100 100" width="100" height="100">
  <circle cx="50" cy="50" r="46" fill="#14151f" stroke="#8a9bab" stroke-width="4"/>

  <circle cx="36" cy="50" r="12" fill="#8a9bab"/>
  <circle cx="50" cy="40" r="17" fill="#8a9bab"/>
  <circle cx="64" cy="50" r="12" fill="#8a9bab"/>
  <rect x="28" y="50" width="44" height="16" rx="8" fill="#8a9bab"/>

  <!-- rain drops -->
  <path d="M 38,70 C 35,76 35,80 38,83 C 41,80 41,76 38,70 Z" fill="#5b8fb0"/>
  <path d="M 50,74 C 47,80 47,84 50,87 C 53,84 53,80 50,74 Z" fill="#5b8fb0"/>
  <path d="M 62,70 C 59,76 59,80 62,83 C 65,80 65,76 62,70 Z" fill="#5b8fb0"/>
</svg>
