<svg xmlns="http://www.w3.org/2000/svg" viewBox="0 0 100 100" width="100" height="100">
  <defs>
    <clipPath id="subcontinentClip">
      <path d="M 73.7,40.0 C 74.2,40.6 74.6,41.3 75.0,42.0 C 75.4,42.7 75.7,43.4 76.0,44.2 C 76.3,44.9 76.6,45.7 76.8,46.6 C 77.0,47.4 77.1,48.3 77.2,49.2 C 77.2,50.1 77.2,51.0 77.1,51.9 C 77.0,52.9 76.9,53.9 76.6,54.9 C 76.3,55.8 76.0,56.8 75.5,57.9 C 75.0,58.9 74.5,59.9 73.8,60.9 C 73.1,61.9 72.3,62.9 71.4,63.8 C 70.4,64.7 69.4,65.7 68.2,66.5 C 67.1,67.4 65.8,68.2 64.4,68.9 C 63.1,69.6 61.6,70.3 60.0,70.8 C 58.5,71.3 56.8,71.8 55.2,72.1 C 53.5,72.4 51.7,72.6 50.0,72.7 C 48.3,72.7 46.5,72.7 44.8,72.5 C 43.1,72.3 41.3,72.0 39.7,71.6 C 38.1,71.1 36.5,70.6 35.1,69.9 C 33.6,69.2 32.2,68.5 31.0,67.6 C 29.8,66.8 28.7,65.8 27.7,64.9 C 26.7,63.9 25.9,62.8 25.2,61.8 C 24.5,60.7 24.0,59.6 23.6,58.5 C 23.2,57.4 22.9,56.3 22.8,55.2 C 22.6,54.1 22.6,53.0 22.7,52.0 C 22.8,51.0 22.9,50.0 23.2,49.0 C 23.4,48.1 23.8,47.2 24.1,46.3 C 24.5,45.5 24.9,44.7 25.3,43.9 C 25.8,43.2 26.2,42.5 26.7,41.8 C 27.2,41.2 27.6,40.6 28.1,40.0 C 28.5,39.4 29.0,38.9 29.4,38.4 C 29.8,37.9 30.2,37.4 30.6,36.9 C 31.0,36.4 31.4,36.0 31.7,35.5 C 32.1,35.1 32.4,34.6 32.8,34.2 C 33.1,33.7 33.4,33.3 33.7,32.9 C 34.1,32.4 34.4,32.0 34.8,31.5 C 35.2,31.1 35.5,30.6 36.0,30.2 C 36.4,29.7 36.8,29.3 37.3,28.9 C 37.8,28.5 38.4,28.0 38.9,27.7 C 39.5,27.3 40.1,26.9 40.8,26.6 C 41.5,26.3 42.2,26.0 42.9,25.8 C 43.6,25.6 44.4,25.4 45.2,25.3 C 46.0,25.1 46.8,25.0 47.6,25.0 C 48.4,25.0 49.2,25.0 50.0,25.1 C 50.8,25.1 51.6,25.3 52.3,25.4 C 53.1,25.6 53.8,25.8 54.6,26.0 C 55.3,26.3 55.9,26.5 56.6,26.8 C 57.2,27.1 57.9,27.4 58.4,27.7 C 59.0,28.1 59.6,28.4 60.1,28.7 C 60.7,29.1 61.2,29.4 61.7,29.8 C 62.2,30.1 62.7,30.5 63.1,30.8 C 63.6,31.1 64.1,31.5 64.6,31.8 C 65.1,32.2 65.6,32.6 66.1,32.9 C 66.6,33.3 67.1,33.7 67.6,34.1 C 68.1,34.5 68.6,34.9 69.2,35.3 C 69.7,35.7 70.2,36.2 70.7,36.7 C 71.3,37.2 71.8,37.7 72.3,38.2 C 72.8,38.8 73.3,39.4 73.7,40.0 Z"/>
    </clipPath>
  </defs>

  <circle cx="50" cy="50" r="46" fill="#14151f" stroke="#7a8a52" stroke-width="4"/>

  <!-- single unified landmass, main body + peninsula as one continuous shape -->
  <path d="M 73.7,40.0 C 74.2,40.6 74.6,41.3 75.0,42.0 C 75.4,42.7 75.7,43.4 76.0,44.2 C 76.3,44.9 76.6,45.7 76.8,46.6 C 77.0,47.4 77.1,48.3 77.2,49.2 C 77.2,50.1 77.2,51.0 77.1,51.9 C 77.0,52.9 76.9,53.9 76.6,54.9 C 76.3,55.8 76.0,56.8 75.5,57.9 C 75.0,58.9 74.5,59.9 73.8,60.9 C 73.1,61.9 72.3,62.9 71.4,63.8 C 70.4,64.7 69.4,65.7 68.2,66.5 C 67.1,67.4 65.8,68.2 64.4,68.9 C 63.1,69.6 61.6,70.3 60.0,70.8 C 58.5,71.3 56.8,71.8 55.2,72.1 C 53.5,72.4 51.7,72.6 50.0,72.7 C 48.3,72.7 46.5,72.7 44.8,72.5 C 43.1,72.3 41.3,72.0 39.7,71.6 C 38.1,71.1 36.5,70.6 35.1,69.9 C 33.6,69.2 32.2,68.5 31.0,67.6 C 29.8,66.8 28.7,65.8 27.7,64.9 C 26.7,63.9 25.9,62.8 25.2,61.8 C 24.5,60.7 24.0,59.6 23.6,58.5 C 23.2,57.4 22.9,56.3 22.8,55.2 C 22.6,54.1 22.6,53.0 22.7,52.0 C 22.8,51.0 22.9,50.0 23.2,49.0 C 23.4,48.1 23.8,47.2 24.1,46.3 C 24.5,45.5 24.9,44.7 25.3,43.9 C 25.8,43.2 26.2,42.5 26.7,41.8 C 27.2,41.2 27.6,40.6 28.1,40.0 C 28.5,39.4 29.0,38.9 29.4,38.4 C 29.8,37.9 30.2,37.4 30.6,36.9 C 31.0,36.4 31.4,36.0 31.7,35.5 C 32.1,35.1 32.4,34.6 32.8,34.2 C 33.1,33.7 33.4,33.3 33.7,32.9 C 34.1,32.4 34.4,32.0 34.8,31.5 C 35.2,31.1 35.5,30.6 36.0,30.2 C 36.4,29.7 36.8,29.3 37.3,28.9 C 37.8,28.5 38.4,28.0 38.9,27.7 C 39.5,27.3 40.1,26.9 40.8,26.6 C 41.5,26.3 42.2,26.0 42.9,25.8 C 43.6,25.6 44.4,25.4 45.2,25.3 C 46.0,25.1 46.8,25.0 47.6,25.0 C 48.4,25.0 49.2,25.0 50.0,25.1 C 50.8,25.1 51.6,25.3 52.3,25.4 C 53.1,25.6 53.8,25.8 54.6,26.0 C 55.3,26.3 55.9,26.5 56.6,26.8 C 57.2,27.1 57.9,27.4 58.4,27.7 C 59.0,28.1 59.6,28.4 60.1,28.7 C 60.7,29.1 61.2,29.4 61.7,29.8 C 62.2,30.1 62.7,30.5 63.1,30.8 C 63.6,31.1 64.1,31.5 64.6,31.8 C 65.1,32.2 65.6,32.6 66.1,32.9 C 66.6,33.3 67.1,33.7 67.6,34.1 C 68.1,34.5 68.6,34.9 69.2,35.3 C 69.7,35.7 70.2,36.2 70.7,36.7 C 71.3,37.2 71.8,37.7 72.3,38.2 C 72.8,38.8 73.3,39.4 73.7,40.0 Z"
        fill="#7a8a52"/>

  <!-- internal highlight region, clipped so it can never cross the outline -->
  <g clip-path="url(#subcontinentClip)">
    <ellipse cx="50" cy="63" rx="14" ry="15" fill="#9cab5e"/>
  </g>
</svg>
